# MagicaVoxel @ Ephtracy

# group
o 

# material
mtllib monsterr22-2.mtl
usemtl palette

# normals
vn -1 0 0
vn 1 0 0
vn 0 0 1
vn 0 0 -1
vn 0 -1 0
vn 0 1 0

# texcoords
vt 0.119141 0.5
vt 0.294922 0.5
vt 0.373047 0.5
vt 0.841797 0.5
vt 0.853516 0.5
vt 0.958984 0.5

# verts
v -0.5 0 -0.1
v -0.5 0 -0.2
v -0.5 0.1 0
v -0.5 0.1 -0.1
v -0.5 0.1 -0.2
v -0.5 0.1 -0.4
v -0.5 0.2 0.3
v -0.5 0.2 0
v -0.5 0.7 0.3
v -0.5 0.7 -0.4
v -0.4 0 0.3
v -0.4 0 0.1
v -0.4 0 -0.1
v -0.4 0 -0.2
v -0.4 0 -0.3
v -0.4 0.1 0
v -0.4 0.1 -0.1
v -0.4 0.1 -0.2
v -0.4 0.1 -0.3
v -0.4 0.2 0.3
v -0.4 0.2 0.1
v -0.4 0.2 0
v -0.4 0.7 0.3
v -0.4 0.7 -0.3
v -0.4 0.8 0.3
v -0.4 0.8 -0.3
v 0.1 0.7 0.3
v 0.1 0.7 0.2
v 0.1 0.8 0.3
v 0.1 0.8 0.2
v 0.2 0.7 0.1
v 0.2 0.7 0
v 0.2 0.7 -0.1
v 0.2 0.7 -0.2
v 0.2 0.8 0.1
v 0.2 0.8 0
v 0.2 0.8 -0.1
v 0.2 0.8 -0.2
v 0.3 0.6 0.3
v 0.3 0.6 0.2
v 0.3 0.6 0.1
v 0.3 0.6 0
v 0.3 0.6 -0.1
v 0.3 0.6 -0.2
v 0.3 0.6 -0.3
v 0.3 0.6 -0.4
v 0.3 0.7 0.3
v 0.3 0.7 0.2
v 0.3 0.7 0.1
v 0.3 0.7 0
v 0.3 0.7 -0.1
v 0.3 0.7 -0.2
v 0.3 0.7 -0.3
v 0.3 0.7 -0.4
v 0.3 0.8 0.2
v 0.3 0.8 0.1
v 0.3 0.8 0
v 0.3 0.8 -0.1
v 0.3 0.8 -0.2
v 0.3 0.8 -0.3
v 0.4 0 0.3
v 0.4 0 0.1
v 0.4 0 -0.1
v 0.4 0 -0.2
v 0.4 0 -0.3
v 0.4 0.1 0
v 0.4 0.1 -0.1
v 0.4 0.1 -0.2
v 0.4 0.1 -0.3
v 0.4 0.2 0.3
v 0.4 0.2 0.1
v 0.4 0.2 0
v 0.4 0.5 0.3
v 0.4 0.5 0.2
v 0.4 0.5 0.1
v 0.4 0.5 0
v 0.4 0.5 -0.1
v 0.4 0.5 -0.2
v 0.4 0.5 -0.3
v 0.4 0.5 -0.4
v 0.4 0.6 0.3
v 0.4 0.6 0.2
v 0.4 0.6 0.1
v 0.4 0.6 0
v 0.4 0.6 -0.1
v 0.4 0.6 -0.2
v 0.4 0.6 -0.3
v 0.4 0.6 -0.4
v 0.4 0.7 0.2
v 0.4 0.7 0.1
v 0.4 0.7 0
v 0.4 0.7 -0.1
v 0.4 0.7 -0.2
v 0.4 0.7 -0.3
v 0.5 0 -0.1
v 0.5 0 -0.2
v 0.5 0.1 0
v 0.5 0.1 -0.1
v 0.5 0.1 -0.2
v 0.5 0.1 -0.4
v 0.5 0.2 0.3
v 0.5 0.2 0.1
v 0.5 0.2 0
v 0.5 0.3 0.3
v 0.5 0.3 0.2
v 0.5 0.3 -0.1
v 0.5 0.3 -0.2
v 0.5 0.3 -0.3
v 0.5 0.3 -0.4
v 0.5 0.4 0.2
v 0.5 0.4 0.1
v 0.5 0.4 0
v 0.5 0.4 -0.1
v 0.5 0.4 -0.2
v 0.5 0.4 -0.3
v 0.5 0.5 0.3
v 0.5 0.5 0.2
v 0.5 0.5 0.1
v 0.5 0.5 0
v 0.5 0.5 -0.1
v 0.5 0.5 -0.2
v 0.5 0.5 -0.3
v 0.5 0.5 -0.4
v 0.5 0.6 0.2
v 0.5 0.6 0.1
v 0.5 0.6 0
v 0.5 0.6 -0.1
v 0.5 0.6 -0.2
v 0.5 0.6 -0.3
v -0.5 0.2 0.3
v -0.5 0.7 0.3
v -0.4 0 0.3
v -0.4 0.2 0.3
v -0.4 0.4 0.3
v -0.4 0.6 0.3
v -0.4 0.7 0.3
v -0.4 0.8 0.3
v -0.2 0.2 0.3
v -0.2 0.4 0.3
v 0.1 0.6 0.3
v 0.1 0.7 0.3
v 0.1 0.8 0.3
v 0.2 0.2 0.3
v 0.2 0.4 0.3
v 0.2 0.5 0.3
v 0.2 0.6 0.3
v 0.2 0.7 0.3
v 0.3 0.4 0.3
v 0.3 0.5 0.3
v 0.3 0.6 0.3
v 0.3 0.7 0.3
v 0.4 0 0.3
v 0.4 0.2 0.3
v 0.4 0.3 0.3
v 0.4 0.4 0.3
v 0.4 0.5 0.3
v 0.4 0.6 0.3
v 0.5 0.2 0.3
v 0.5 0.3 0.3
v 0.5 0.5 0.3
v 0.1 0.7 0.2
v 0.1 0.8 0.2
v 0.2 0.7 0.2
v 0.2 0.8 0.2
v 0.3 0.6 0.2
v 0.3 0.7 0.2
v 0.3 0.8 0.2
v 0.4 0.5 0.2
v 0.4 0.6 0.2
v 0.4 0.7 0.2
v 0.5 0.5 0.2
v 0.5 0.6 0.2
v -0.5 0.1 0
v -0.5 0.2 0
v -0.4 0.1 0
v -0.4 0.2 0
v 0.2 0.7 0
v 0.2 0.8 0
v 0.3 0.6 0
v 0.3 0.7 0
v 0.3 0.8 0
v 0.4 0.1 0
v 0.4 0.2 0
v 0.4 0.5 0
v 0.4 0.6 0
v 0.4 0.7 0
v 0.5 0.1 0
v 0.5 0.2 0
v 0.5 0.5 0
v 0.5 0.6 0
v -0.5 0 -0.1
v -0.5 0.1 -0.1
v -0.4 0 -0.1
v -0.4 0.1 -0.1
v 0.4 0 -0.1
v 0.4 0.1 -0.1
v 0.5 0 -0.1
v 0.5 0.1 -0.1
v 0.2 0.7 -0.2
v 0.2 0.8 -0.2
v 0.3 0.6 -0.2
v 0.3 0.7 -0.2
v 0.3 0.8 -0.2
v 0.4 0.5 -0.2
v 0.4 0.6 -0.2
v 0.4 0.7 -0.2
v 0.5 0.5 -0.2
v 0.5 0.6 -0.2
v 0.2 0.7 0.1
v 0.2 0.8 0.1
v 0.3 0.6 0.1
v 0.3 0.7 0.1
v 0.3 0.8 0.1
v 0.4 0.5 0.1
v 0.4 0.6 0.1
v 0.4 0.7 0.1
v 0.5 0.5 0.1
v 0.5 0.6 0.1
v 0.2 0.7 -0.1
v 0.2 0.8 -0.1
v 0.3 0.6 -0.1
v 0.3 0.7 -0.1
v 0.3 0.8 -0.1
v 0.4 0.5 -0.1
v 0.4 0.6 -0.1
v 0.4 0.7 -0.1
v 0.5 0.5 -0.1
v 0.5 0.6 -0.1
v -0.5 0 -0.2
v -0.5 0.1 -0.2
v -0.4 0 -0.2
v -0.4 0.1 -0.2
v 0.4 0 -0.2
v 0.4 0.1 -0.2
v 0.5 0 -0.2
v 0.5 0.1 -0.2
v -0.4 0 -0.3
v -0.4 0.1 -0.3
v -0.4 0.7 -0.3
v -0.4 0.8 -0.3
v 0.1 0.7 -0.3
v 0.1 0.8 -0.3
v 0.2 0.7 -0.3
v 0.2 0.8 -0.3
v 0.3 0.6 -0.3
v 0.3 0.7 -0.3
v 0.3 0.8 -0.3
v 0.4 0 -0.3
v 0.4 0.1 -0.3
v 0.4 0.5 -0.3
v 0.4 0.6 -0.3
v 0.4 0.7 -0.3
v 0.5 0.5 -0.3
v 0.5 0.6 -0.3
v -0.5 0.1 -0.4
v -0.5 0.7 -0.4
v 0.1 0.6 -0.4
v 0.1 0.7 -0.4
v 0.2 0.5 -0.4
v 0.2 0.6 -0.4
v 0.2 0.7 -0.4
v 0.3 0.4 -0.4
v 0.3 0.5 -0.4
v 0.3 0.6 -0.4
v 0.3 0.7 -0.4
v 0.4 0.3 -0.4
v 0.4 0.4 -0.4
v 0.4 0.5 -0.4
v 0.4 0.6 -0.4
v 0.5 0.1 -0.4
v 0.5 0.3 -0.4
v 0.5 0.5 -0.4
v -0.4 0 0.3
v 0.4 0 0.3
v -0.4 0 0.1
v 0.4 0 0.1
v -0.5 0 -0.1
v -0.4 0 -0.1
v 0.4 0 -0.1
v 0.5 0 -0.1
v -0.5 0 -0.2
v -0.4 0 -0.2
v 0.4 0 -0.2
v 0.5 0 -0.2
v -0.4 0 -0.3
v 0.4 0 -0.3
v -0.5 0.1 0
v -0.4 0.1 0
v 0.4 0.1 0
v 0.5 0.1 0
v -0.5 0.1 -0.1
v -0.4 0.1 -0.1
v 0.4 0.1 -0.1
v 0.5 0.1 -0.1
v -0.5 0.1 -0.2
v -0.4 0.1 -0.2
v 0.4 0.1 -0.2
v 0.5 0.1 -0.2
v -0.4 0.1 -0.3
v 0.4 0.1 -0.3
v -0.5 0.1 -0.4
v 0.5 0.1 -0.4
v -0.5 0.2 0.3
v -0.4 0.2 0.3
v 0.4 0.2 0.3
v 0.5 0.2 0.3
v -0.4 0.2 0.1
v 0.4 0.2 0.1
v 0.5 0.2 0.1
v -0.5 0.2 0
v -0.4 0.2 0
v 0.4 0.2 0
v 0.5 0.2 0
v 0.4 0.5 0.3
v 0.5 0.5 0.3
v 0.4 0.5 0.2
v 0.5 0.5 0.2
v 0.4 0.5 0.1
v 0.5 0.5 0.1
v 0.4 0.5 0
v 0.5 0.5 0
v 0.4 0.5 -0.1
v 0.5 0.5 -0.1
v 0.4 0.5 -0.2
v 0.5 0.5 -0.2
v 0.4 0.5 -0.3
v 0.5 0.5 -0.3
v 0.4 0.5 -0.4
v 0.5 0.5 -0.4
v 0.3 0.6 0.3
v 0.4 0.6 0.3
v 0.3 0.6 0.2
v 0.4 0.6 0.2
v 0.5 0.6 0.2
v 0.3 0.6 0.1
v 0.4 0.6 0.1
v 0.5 0.6 0.1
v 0.3 0.6 0
v 0.4 0.6 0
v 0.5 0.6 0
v 0.3 0.6 -0.1
v 0.4 0.6 -0.1
v 0.5 0.6 -0.1
v 0.3 0.6 -0.2
v 0.4 0.6 -0.2
v 0.5 0.6 -0.2
v 0.3 0.6 -0.3
v 0.4 0.6 -0.3
v 0.5 0.6 -0.3
v 0.3 0.6 -0.4
v 0.4 0.6 -0.4
v -0.5 0.7 0.3
v -0.4 0.7 0.3
v 0.1 0.7 0.3
v 0.2 0.7 0.3
v 0.3 0.7 0.3
v 0.1 0.7 0.2
v 0.2 0.7 0.2
v 0.3 0.7 0.2
v 0.4 0.7 0.2
v 0.2 0.7 0.1
v 0.3 0.7 0.1
v 0.4 0.7 0.1
v 0.2 0.7 0
v 0.3 0.7 0
v 0.4 0.7 0
v 0.2 0.7 -0.1
v 0.3 0.7 -0.1
v 0.4 0.7 -0.1
v 0.2 0.7 -0.2
v 0.3 0.7 -0.2
v 0.4 0.7 -0.2
v -0.4 0.7 -0.3
v 0.1 0.7 -0.3
v 0.2 0.7 -0.3
v 0.3 0.7 -0.3
v 0.4 0.7 -0.3
v -0.5 0.7 -0.4
v 0.1 0.7 -0.4
v 0.2 0.7 -0.4
v 0.3 0.7 -0.4
v -0.4 0.8 0.3
v 0.1 0.8 0.3
v 0.1 0.8 0.2
v 0.2 0.8 0.2
v 0.3 0.8 0.2
v 0.2 0.8 0.1
v 0.3 0.8 0.1
v 0.2 0.8 0
v 0.3 0.8 0
v 0.2 0.8 -0.1
v 0.3 0.8 -0.1
v 0.2 0.8 -0.2
v 0.3 0.8 -0.2
v -0.4 0.8 -0.3
v 0.1 0.8 -0.3
v 0.2 0.8 -0.3
v 0.3 0.8 -0.3

# faces
f 4/3/1 2/3/1 1/3/1
f 5/3/1 2/3/1 4/3/1
f 8/3/1 4/3/1 3/3/1
f 8/3/1 6/3/1 5/3/1
f 8/3/1 5/3/1 4/3/1
f 9/3/1 8/3/1 7/3/1
f 10/3/1 6/3/1 8/3/1
f 10/3/1 8/3/1 9/3/1
f 16/3/1 13/3/1 12/3/1
f 17/3/1 13/3/1 16/3/1
f 18/3/1 15/3/1 14/3/1
f 19/3/1 15/3/1 18/3/1
f 20/2/1 12/2/1 11/2/1
f 21/3/1 16/3/1 12/3/1
f 21/2/1 12/2/1 20/2/1
f 22/3/1 16/3/1 21/3/1
f 25/3/1 24/3/1 23/3/1
f 26/3/1 24/3/1 25/3/1
f 27/3/2 28/3/2 29/3/2
f 29/3/2 28/3/2 30/3/2
f 31/5/2 32/5/2 35/5/2
f 35/5/2 32/5/2 36/5/2
f 33/5/2 34/5/2 37/5/2
f 37/5/2 34/5/2 38/5/2
f 39/1/2 40/1/2 47/1/2
f 47/1/2 40/1/2 48/1/2
f 41/1/2 42/1/2 49/1/2
f 49/1/2 42/1/2 50/1/2
f 43/1/2 44/1/2 51/1/2
f 51/1/2 44/1/2 52/1/2
f 45/1/2 46/1/2 53/1/2
f 53/1/2 46/1/2 54/1/2
f 48/1/2 49/1/2 55/1/2
f 55/1/2 49/1/2 56/1/2
f 50/1/2 51/1/2 57/1/2
f 57/1/2 51/1/2 58/1/2
f 52/1/2 53/1/2 59/1/2
f 59/1/2 53/1/2 60/1/2
f 62/3/2 63/3/2 66/3/2
f 66/3/2 63/3/2 67/3/2
f 64/3/2 65/3/2 68/3/2
f 68/3/2 65/3/2 69/3/2
f 61/2/2 62/2/2 70/2/2
f 62/3/2 66/3/2 71/3/2
f 70/2/2 62/2/2 71/2/2
f 71/3/2 66/3/2 72/3/2
f 73/1/2 74/1/2 81/1/2
f 81/1/2 74/1/2 82/1/2
f 75/1/2 76/1/2 83/1/2
f 83/1/2 76/1/2 84/1/2
f 77/1/2 78/1/2 85/1/2
f 85/1/2 78/1/2 86/1/2
f 79/1/2 80/1/2 87/1/2
f 87/1/2 80/1/2 88/1/2
f 82/1/2 83/1/2 89/1/2
f 89/1/2 83/1/2 90/1/2
f 84/1/2 85/1/2 91/1/2
f 91/1/2 85/1/2 92/1/2
f 86/1/2 87/1/2 93/1/2
f 93/1/2 87/1/2 94/1/2
f 95/3/2 96/3/2 98/3/2
f 98/3/2 96/3/2 99/3/2
f 97/3/2 98/3/2 103/3/2
f 98/3/2 99/3/2 103/3/2
f 99/3/2 100/3/2 103/3/2
f 101/3/2 102/3/2 104/3/2
f 104/3/2 102/3/2 105/3/2
f 103/3/2 100/3/2 106/3/2
f 106/3/2 100/3/2 107/3/2
f 107/3/2 100/3/2 108/3/2
f 108/3/2 100/3/2 109/3/2
f 105/3/2 102/3/2 110/3/2
f 104/5/2 105/5/2 110/5/2
f 102/5/2 103/5/2 111/5/2
f 110/3/2 102/3/2 111/3/2
f 103/3/2 106/3/2 112/3/2
f 111/5/2 103/5/2 112/5/2
f 106/5/2 107/5/2 113/5/2
f 112/3/2 106/3/2 113/3/2
f 107/3/2 108/3/2 114/3/2
f 113/5/2 107/5/2 114/5/2
f 108/5/2 109/5/2 115/5/2
f 114/3/2 108/3/2 115/3/2
f 104/5/2 110/5/2 116/5/2
f 113/5/2 114/5/2 116/5/2
f 114/5/2 115/5/2 116/5/2
f 112/5/2 113/5/2 116/5/2
f 111/5/2 112/5/2 116/5/2
f 110/5/2 111/5/2 116/5/2
f 116/5/2 115/5/2 117/5/2
f 117/5/2 115/5/2 118/5/2
f 118/5/2 115/5/2 119/5/2
f 119/5/2 115/5/2 120/5/2
f 120/5/2 115/5/2 121/5/2
f 115/5/2 109/5/2 122/5/2
f 121/5/2 115/5/2 122/5/2
f 122/5/2 109/5/2 123/5/2
f 117/1/2 118/1/2 124/1/2
f 124/1/2 118/1/2 125/1/2
f 119/1/2 120/1/2 126/1/2
f 126/1/2 120/1/2 127/1/2
f 121/1/2 122/1/2 128/1/2
f 128/1/2 122/1/2 129/1/2
f 133/3/3 131/3/3 130/3/3
f 134/3/3 131/3/3 133/3/3
f 135/3/3 131/3/3 134/3/3
f 136/3/3 131/3/3 135/3/3
f 138/2/3 133/2/3 132/2/3
f 138/4/3 134/4/3 133/4/3
f 139/2/3 135/2/3 134/2/3
f 139/4/3 134/4/3 138/4/3
f 140/3/3 137/3/3 136/3/3
f 140/2/3 135/2/3 139/2/3
f 140/2/3 139/2/3 138/2/3
f 140/3/3 136/3/3 135/3/3
f 141/3/3 137/3/3 140/3/3
f 142/3/3 137/3/3 141/3/3
f 143/2/3 138/2/3 132/2/3
f 143/2/3 140/2/3 138/2/3
f 144/2/3 140/2/3 143/2/3
f 145/2/3 140/2/3 144/2/3
f 146/5/3 141/5/3 140/5/3
f 146/2/3 140/2/3 145/2/3
f 147/5/3 141/5/3 146/5/3
f 148/2/3 145/2/3 144/2/3
f 148/4/3 144/4/3 143/4/3
f 149/5/3 146/5/3 145/5/3
f 149/2/3 145/2/3 148/2/3
f 150/1/3 147/1/3 146/1/3
f 150/5/3 146/5/3 149/5/3
f 151/1/3 147/1/3 150/1/3
f 152/2/3 143/2/3 132/2/3
f 153/4/3 148/4/3 143/4/3
f 153/2/3 143/2/3 152/2/3
f 154/4/3 148/4/3 153/4/3
f 155/5/3 149/5/3 148/5/3
f 155/4/3 148/4/3 154/4/3
f 156/1/3 150/1/3 149/1/3
f 156/5/3 149/5/3 155/5/3
f 157/1/3 150/1/3 156/1/3
f 158/3/3 154/3/3 153/3/3
f 159/5/3 155/5/3 154/5/3
f 159/3/3 154/3/3 158/3/3
f 159/5/3 156/5/3 155/5/3
f 160/5/3 156/5/3 159/5/3
f 163/5/3 162/5/3 161/5/3
f 164/5/3 162/5/3 163/5/3
f 166/1/3 164/1/3 163/1/3
f 167/1/3 164/1/3 166/1/3
f 169/1/3 166/1/3 165/1/3
f 170/1/3 166/1/3 169/1/3
f 171/1/3 169/1/3 168/1/3
f 172/1/3 169/1/3 171/1/3
f 175/3/3 174/3/3 173/3/3
f 176/3/3 174/3/3 175/3/3
f 180/1/3 178/1/3 177/1/3
f 181/1/3 178/1/3 180/1/3
f 185/1/3 180/1/3 179/1/3
f 186/1/3 180/1/3 185/1/3
f 187/3/3 183/3/3 182/3/3
f 188/3/3 183/3/3 187/3/3
f 189/1/3 185/1/3 184/1/3
f 190/1/3 185/1/3 189/1/3
f 193/3/3 192/3/3 191/3/3
f 194/3/3 192/3/3 193/3/3
f 197/3/3 196/3/3 195/3/3
f 198/3/3 196/3/3 197/3/3
f 202/1/3 200/1/3 199/1/3
f 203/1/3 200/1/3 202/1/3
f 205/1/3 202/1/3 201/1/3
f 206/1/3 202/1/3 205/1/3
f 207/1/3 205/1/3 204/1/3
f 208/1/3 205/1/3 207/1/3
f 209/1/4 210/1/4 212/1/4
f 212/1/4 210/1/4 213/1/4
f 211/1/4 212/1/4 215/1/4
f 215/1/4 212/1/4 216/1/4
f 214/1/4 215/1/4 217/1/4
f 217/1/4 215/1/4 218/1/4
f 219/1/4 220/1/4 222/1/4
f 222/1/4 220/1/4 223/1/4
f 221/1/4 222/1/4 225/1/4
f 225/1/4 222/1/4 226/1/4
f 224/1/4 225/1/4 227/1/4
f 227/1/4 225/1/4 228/1/4
f 229/3/4 230/3/4 231/3/4
f 231/3/4 230/3/4 232/3/4
f 233/3/4 234/3/4 235/3/4
f 235/3/4 234/3/4 236/3/4
f 239/3/4 240/3/4 241/3/4
f 241/3/4 240/3/4 242/3/4
f 241/5/4 242/5/4 243/5/4
f 243/5/4 242/5/4 244/5/4
f 243/1/4 244/1/4 246/1/4
f 246/1/4 244/1/4 247/1/4
f 237/3/4 238/3/4 248/3/4
f 248/3/4 238/3/4 249/3/4
f 245/1/4 246/1/4 251/1/4
f 251/1/4 246/1/4 252/1/4
f 250/1/4 251/1/4 253/1/4
f 253/1/4 251/1/4 254/1/4
f 255/3/4 256/3/4 257/3/4
f 257/3/4 256/3/4 258/3/4
f 255/3/4 257/3/4 259/3/4
f 257/5/4 258/5/4 260/5/4
f 259/3/4 257/3/4 260/3/4
f 260/5/4 258/5/4 261/5/4
f 255/3/4 259/3/4 262/3/4
f 259/5/4 260/5/4 263/5/4
f 262/3/4 259/3/4 263/3/4
f 260/1/4 261/1/4 264/1/4
f 263/5/4 260/5/4 264/5/4
f 264/1/4 261/1/4 265/1/4
f 255/3/4 262/3/4 266/3/4
f 262/5/4 263/5/4 267/5/4
f 266/3/4 262/3/4 267/3/4
f 263/1/4 264/1/4 268/1/4
f 267/5/4 263/5/4 268/5/4
f 268/1/4 264/1/4 269/1/4
f 255/3/4 266/3/4 270/3/4
f 266/5/4 267/5/4 271/5/4
f 270/3/4 266/3/4 271/3/4
f 267/5/4 268/5/4 271/5/4
f 271/5/4 268/5/4 272/5/4
f 275/2/5 274/2/5 273/2/5
f 276/2/5 274/2/5 275/2/5
f 278/3/5 276/3/5 275/3/5
f 279/3/5 276/3/5 278/3/5
f 281/3/5 279/3/5 278/3/5
f 281/3/5 280/3/5 279/3/5
f 281/3/5 278/3/5 277/3/5
f 282/3/5 280/3/5 281/3/5
f 283/3/5 280/3/5 282/3/5
f 284/3/5 280/3/5 283/3/5
f 285/3/5 283/3/5 282/3/5
f 286/3/5 283/3/5 285/3/5
f 291/3/5 288/3/5 287/3/5
f 292/3/5 288/3/5 291/3/5
f 293/3/5 290/3/5 289/3/5
f 294/3/5 290/3/5 293/3/5
f 299/3/5 296/3/5 295/3/5
f 300/3/5 298/3/5 297/3/5
f 301/3/5 299/3/5 295/3/5
f 301/3/5 300/3/5 299/3/5
f 302/3/5 298/3/5 300/3/5
f 302/3/5 300/3/5 301/3/5
f 307/3/5 304/3/5 303/3/5
f 308/3/5 306/3/5 305/3/5
f 309/3/5 306/3/5 308/3/5
f 310/3/5 307/3/5 303/3/5
f 311/3/5 307/3/5 310/3/5
f 312/5/5 309/5/5 308/5/5
f 313/5/5 309/5/5 312/5/5
f 314/5/6 315/5/6 316/5/6
f 316/5/6 315/5/6 317/5/6
f 318/5/6 319/5/6 320/5/6
f 320/5/6 319/5/6 321/5/6
f 322/5/6 323/5/6 324/5/6
f 324/5/6 323/5/6 325/5/6
f 326/5/6 327/5/6 328/5/6
f 328/5/6 327/5/6 329/5/6
f 330/1/6 331/1/6 332/1/6
f 332/1/6 331/1/6 333/1/6
f 333/1/6 334/1/6 336/1/6
f 336/1/6 334/1/6 337/1/6
f 335/1/6 336/1/6 338/1/6
f 338/1/6 336/1/6 339/1/6
f 339/1/6 340/1/6 342/1/6
f 342/1/6 340/1/6 343/1/6
f 341/1/6 342/1/6 344/1/6
f 344/1/6 342/1/6 345/1/6
f 345/1/6 346/1/6 348/1/6
f 348/1/6 346/1/6 349/1/6
f 347/1/6 348/1/6 350/1/6
f 350/1/6 348/1/6 351/1/6
f 354/5/6 355/5/6 357/5/6
f 355/1/6 356/1/6 358/1/6
f 357/5/6 355/5/6 358/5/6
f 358/1/6 356/1/6 359/1/6
f 359/1/6 360/1/6 362/1/6
f 362/1/6 360/1/6 363/1/6
f 361/1/6 362/1/6 364/1/6
f 364/1/6 362/1/6 365/1/6
f 365/1/6 366/1/6 368/1/6
f 368/1/6 366/1/6 369/1/6
f 367/1/6 368/1/6 370/1/6
f 370/1/6 368/1/6 371/1/6
f 352/3/6 353/3/6 373/3/6
f 371/1/6 372/1/6 376/1/6
f 376/1/6 372/1/6 377/1/6
f 352/3/6 373/3/6 378/3/6
f 373/3/6 374/3/6 378/3/6
f 374/5/6 375/5/6 379/5/6
f 378/3/6 374/3/6 379/3/6
f 375/1/6 376/1/6 380/1/6
f 379/5/6 375/5/6 380/5/6
f 380/1/6 376/1/6 381/1/6
f 382/3/6 383/3/6 384/3/6
f 384/5/6 385/5/6 387/5/6
f 385/1/6 386/1/6 387/1/6
f 387/1/6 386/1/6 388/1/6
f 384/5/6 387/5/6 389/5/6
f 384/5/6 389/5/6 391/5/6
f 389/1/6 390/1/6 391/1/6
f 391/1/6 390/1/6 392/1/6
f 384/5/6 391/5/6 393/5/6
f 382/3/6 384/3/6 395/3/6
f 384/5/6 393/5/6 396/5/6
f 395/3/6 384/3/6 396/3/6
f 393/1/6 394/1/6 397/1/6
f 396/5/6 393/5/6 397/5/6
f 397/1/6 394/1/6 398/1/6
