# MagicaVoxel @ Ephtracy

# group
o 

# material
mtllib SSSSSSSSSSSSSSSSSSSSSSSSSSSSSSSSSSSSSSSSSSSSSSSSSSSSSSSSSSSSSSSSSSSSSSSSSSSSSSSSSSSSSSSSSSSSSSSSSSSSSSSSSSSSSGHOOLRANK-4.mtl
usemtl palette

# normals
vn -1 0 0
vn 1 0 0
vn 0 0 1
vn 0 0 -1
vn 0 -1 0
vn 0 1 0

# texcoords
vt 0.306641 0.5
vt 0.748047 0.5
vt 0.767578 0.5
vt 0.958984 0.5

# verts
v 6.8 3.3 -2.2
v 6.8 3.3 -2.8
v 6.8 3.4 -2.2
v 6.8 3.4 -2.5
v 6.8 3.4 -2.7
v 6.8 3.4 -2.8
v 6.8 3.5 -2.2
v 6.8 3.5 -2.4
v 6.8 3.5 -2.5
v 6.8 3.5 -2.7
v 6.8 3.5 -2.8
v 6.8 4.4 -2.4
v 6.8 4.4 -2.8
v 6.9 3.3 -2.1
v 6.9 3.3 -2.2
v 6.9 3.4 -2.1
v 6.9 3.4 -2.2
v 6.9 3.5 -2.1
v 6.9 3.5 -2.2
v 6.9 3.5 -2.3
v 6.9 3.5 -2.4
v 6.9 3.6 -2.2
v 6.9 3.6 -2.3
v 6.9 3.6 -2.4
v 7.1 3.3 -2.1
v 7.1 3.3 -2.2
v 7.1 3.4 -2.1
v 7.1 3.4 -2.2
v 7.1 3.5 -2.1
v 7.1 3.5 -2.2
v 7.1 3.5 -2.3
v 7.1 3.5 -2.4
v 7.1 3.6 -2.2
v 7.1 3.6 -2.3
v 7.1 3.6 -2.4
v 7.2 3.3 -2.2
v 7.2 3.3 -2.8
v 7.2 3.4 -2.2
v 7.2 3.4 -2.5
v 7.2 3.4 -2.7
v 7.2 3.4 -2.8
v 7.2 3.5 -2.2
v 7.2 3.5 -2.4
v 7.2 3.5 -2.5
v 7.2 3.5 -2.7
v 7.2 3.5 -2.8
v 7.2 4.4 -2.4
v 7.2 4.4 -2.8
v 6.9 3.3 -2.1
v 6.9 3.4 -2.1
v 6.9 3.5 -2.1
v 7.1 3.3 -2.1
v 7.1 3.4 -2.1
v 7.1 3.5 -2.1
v 6.8 3.3 -2.2
v 6.8 3.4 -2.2
v 6.8 3.5 -2.2
v 6.9 3.3 -2.2
v 6.9 3.4 -2.2
v 6.9 3.5 -2.2
v 6.9 3.6 -2.2
v 7.1 3.3 -2.2
v 7.1 3.4 -2.2
v 7.1 3.5 -2.2
v 7.1 3.6 -2.2
v 7.2 3.3 -2.2
v 7.2 3.4 -2.2
v 7.2 3.5 -2.2
v 6.8 3.5 -2.4
v 6.8 4.4 -2.4
v 6.9 3.5 -2.4
v 6.9 3.6 -2.4
v 7.1 3.5 -2.4
v 7.1 3.6 -2.4
v 7.2 3.5 -2.4
v 7.2 4.4 -2.4
v 6.8 3.3 -2.8
v 6.8 3.4 -2.8
v 6.8 3.5 -2.8
v 6.8 4.4 -2.8
v 7.2 3.3 -2.8
v 7.2 3.4 -2.8
v 7.2 3.5 -2.8
v 7.2 4.4 -2.8
v 6.9 3.3 -2.1
v 7.1 3.3 -2.1
v 6.8 3.3 -2.2
v 6.9 3.3 -2.2
v 7.1 3.3 -2.2
v 7.2 3.3 -2.2
v 6.8 3.3 -2.8
v 7.2 3.3 -2.8
v 6.9 3.5 -2.1
v 7.1 3.5 -2.1
v 6.8 3.5 -2.2
v 6.9 3.5 -2.2
v 7.1 3.5 -2.2
v 7.2 3.5 -2.2
v 6.9 3.5 -2.3
v 7.1 3.5 -2.3
v 6.8 3.5 -2.4
v 6.9 3.5 -2.4
v 7.1 3.5 -2.4
v 7.2 3.5 -2.4
v 6.9 3.6 -2.2
v 7.1 3.6 -2.2
v 6.9 3.6 -2.3
v 7.1 3.6 -2.3
v 6.9 3.6 -2.4
v 7.1 3.6 -2.4
v 6.8 4.4 -2.4
v 7.2 4.4 -2.4
v 6.8 4.4 -2.8
v 7.2 4.4 -2.8

# faces
f 3/2/1 2/2/1 1/2/1
f 4/2/1 2/2/1 3/2/1
f 5/2/1 2/2/1 4/2/1
f 6/2/1 2/2/1 5/2/1
f 7/3/1 4/3/1 3/3/1
f 8/3/1 4/3/1 7/3/1
f 9/4/1 5/4/1 4/4/1
f 9/3/1 4/3/1 8/3/1
f 10/3/1 6/3/1 5/3/1
f 10/4/1 5/4/1 9/4/1
f 11/3/1 6/3/1 10/3/1
f 12/4/1 9/4/1 8/4/1
f 12/4/1 11/4/1 10/4/1
f 12/4/1 10/4/1 9/4/1
f 13/4/1 11/4/1 12/4/1
f 16/2/1 15/2/1 14/2/1
f 17/2/1 15/2/1 16/2/1
f 18/3/1 17/3/1 16/3/1
f 19/3/1 17/3/1 18/3/1
f 22/2/1 20/2/1 19/2/1
f 23/3/1 21/3/1 20/3/1
f 23/2/1 20/2/1 22/2/1
f 24/3/1 21/3/1 23/3/1
f 25/2/2 26/2/2 27/2/2
f 27/2/2 26/2/2 28/2/2
f 27/3/2 28/3/2 29/3/2
f 29/3/2 28/3/2 30/3/2
f 30/2/2 31/2/2 33/2/2
f 31/3/2 32/3/2 34/3/2
f 33/2/2 31/2/2 34/2/2
f 34/3/2 32/3/2 35/3/2
f 36/2/2 37/2/2 38/2/2
f 38/2/2 37/2/2 39/2/2
f 39/2/2 37/2/2 40/2/2
f 40/2/2 37/2/2 41/2/2
f 38/3/2 39/3/2 42/3/2
f 42/3/2 39/3/2 43/3/2
f 39/4/2 40/4/2 44/4/2
f 43/3/2 39/3/2 44/3/2
f 40/3/2 41/3/2 45/3/2
f 44/4/2 40/4/2 45/4/2
f 45/3/2 41/3/2 46/3/2
f 43/4/2 44/4/2 47/4/2
f 45/4/2 46/4/2 47/4/2
f 44/4/2 45/4/2 47/4/2
f 47/4/2 46/4/2 48/4/2
f 52/2/3 50/2/3 49/2/3
f 53/3/3 51/3/3 50/3/3
f 53/2/3 50/2/3 52/2/3
f 54/3/3 51/3/3 53/3/3
f 58/2/3 56/2/3 55/2/3
f 59/3/3 57/3/3 56/3/3
f 59/2/3 56/2/3 58/2/3
f 60/3/3 57/3/3 59/3/3
f 64/2/3 61/2/3 60/2/3
f 65/2/3 61/2/3 64/2/3
f 66/2/3 63/2/3 62/2/3
f 67/3/3 64/3/3 63/3/3
f 67/2/3 63/2/3 66/2/3
f 68/3/3 64/3/3 67/3/3
f 71/4/3 70/4/3 69/4/3
f 72/4/3 70/4/3 71/4/3
f 74/4/3 70/4/3 72/4/3
f 75/4/3 74/4/3 73/4/3
f 76/4/3 70/4/3 74/4/3
f 76/4/3 74/4/3 75/4/3
f 77/2/4 78/2/4 81/2/4
f 78/3/4 79/3/4 82/3/4
f 81/2/4 78/2/4 82/2/4
f 79/4/4 80/4/4 83/4/4
f 82/3/4 79/3/4 83/3/4
f 83/4/4 80/4/4 84/4/4
f 88/2/5 86/2/5 85/2/5
f 89/2/5 86/2/5 88/2/5
f 91/2/5 88/2/5 87/2/5
f 91/2/5 90/2/5 89/2/5
f 91/2/5 89/2/5 88/2/5
f 92/2/5 90/2/5 91/2/5
f 93/3/6 94/3/6 96/3/6
f 96/3/6 94/3/6 97/3/6
f 95/3/6 96/3/6 99/3/6
f 97/3/6 98/3/6 100/3/6
f 95/3/6 99/3/6 101/3/6
f 101/3/6 99/3/6 102/3/6
f 100/3/6 98/3/6 103/3/6
f 103/3/6 98/3/6 104/3/6
f 105/2/6 106/2/6 107/2/6
f 107/2/6 106/2/6 108/2/6
f 107/3/6 108/3/6 109/3/6
f 109/3/6 108/3/6 110/3/6
f 111/4/6 112/4/6 113/4/6
f 113/4/6 112/4/6 114/4/6
