# MagicaVoxel @ Ephtracy

# group
o 

# material
mtllib SSSSSSSSSSSSSSSSSSSSSSSSSSSSSSSSSSSSSSSSSSSSSSSSSSSSSSSSSSSSSSSSSSSSSSSSSSSSSSSSSSSSSSSSSSSSSSSSSSSSSSSSSSSSSGHOOLRANK-5.mtl
usemtl palette

# normals
vn -1 0 0
vn 1 0 0
vn 0 0 1
vn 0 0 -1
vn 0 -1 0
vn 0 1 0

# texcoords
vt 0.912109 0.5
vt 0.974609 0.5
vt 0.978516 0.5
vt 0.994141 0.5

# verts
v 6.4 2.9 -2.1
v 6.4 2.9 -2.7
v 6.4 3.1 -2.1
v 6.4 3.1 -2.7
v 6.4 3.2 -2.1
v 6.4 3.2 -2.7
v 6.4 4.7 -2.1
v 6.4 4.7 -2.7
v 7.6 2.9 -2.1
v 7.6 2.9 -2.7
v 7.6 3.1 -2.1
v 7.6 3.1 -2.7
v 7.6 3.2 -2.1
v 7.6 3.2 -2.7
v 7.6 4.7 -2.1
v 7.6 4.7 -2.7
v 6.4 2.9 -2.1
v 6.4 3.1 -2.1
v 6.4 3.2 -2.1
v 6.4 4.7 -2.1
v 6.9 3.3 -2.1
v 6.9 3.4 -2.1
v 6.9 3.5 -2.1
v 6.9 3.6 -2.1
v 6.9 3.7 -2.1
v 6.9 3.8 -2.1
v 6.9 3.9 -2.1
v 6.9 4 -2.1
v 6.9 4.1 -2.1
v 6.9 4.2 -2.1
v 6.9 4.3 -2.1
v 6.9 4.4 -2.1
v 7 3.2 -2.1
v 7 3.3 -2.1
v 7 3.4 -2.1
v 7 3.5 -2.1
v 7 3.6 -2.1
v 7 3.7 -2.1
v 7 3.8 -2.1
v 7 3.9 -2.1
v 7 4 -2.1
v 7 4.1 -2.1
v 7 4.2 -2.1
v 7 4.3 -2.1
v 7 4.4 -2.1
v 7 4.5 -2.1
v 7.1 3.2 -2.1
v 7.1 3.3 -2.1
v 7.1 3.4 -2.1
v 7.1 3.5 -2.1
v 7.1 3.6 -2.1
v 7.1 3.7 -2.1
v 7.1 3.8 -2.1
v 7.1 3.9 -2.1
v 7.1 4 -2.1
v 7.1 4.1 -2.1
v 7.1 4.2 -2.1
v 7.1 4.3 -2.1
v 7.1 4.4 -2.1
v 7.1 4.5 -2.1
v 7.6 2.9 -2.1
v 7.6 3.1 -2.1
v 7.6 3.2 -2.1
v 7.6 4.7 -2.1
v 6.4 2.9 -2.7
v 6.4 3.1 -2.7
v 6.4 3.2 -2.7
v 6.4 4.7 -2.7
v 7.6 2.9 -2.7
v 7.6 3.1 -2.7
v 7.6 3.2 -2.7
v 7.6 4.7 -2.7
v 6.4 2.9 -2.1
v 7.6 2.9 -2.1
v 6.4 2.9 -2.7
v 7.6 2.9 -2.7
v 6.4 4.7 -2.1
v 7.6 4.7 -2.1
v 6.4 4.7 -2.7
v 7.6 4.7 -2.7

# faces
f 3/1/1 2/1/1 1/1/1
f 4/1/1 2/1/1 3/1/1
f 5/3/1 4/3/1 3/3/1
f 6/3/1 4/3/1 5/3/1
f 7/4/1 6/4/1 5/4/1
f 8/4/1 6/4/1 7/4/1
f 9/1/2 10/1/2 11/1/2
f 11/1/2 10/1/2 12/1/2
f 11/3/2 12/3/2 13/3/2
f 13/3/2 12/3/2 14/3/2
f 13/4/2 14/4/2 15/4/2
f 15/4/2 14/4/2 16/4/2
f 21/4/3 20/4/3 19/4/3
f 22/4/3 20/4/3 21/4/3
f 23/4/3 20/4/3 22/4/3
f 24/4/3 20/4/3 23/4/3
f 25/4/3 20/4/3 24/4/3
f 26/4/3 20/4/3 25/4/3
f 27/4/3 20/4/3 26/4/3
f 28/4/3 20/4/3 27/4/3
f 29/4/3 20/4/3 28/4/3
f 30/4/3 20/4/3 29/4/3
f 31/4/3 20/4/3 30/4/3
f 32/4/3 20/4/3 31/4/3
f 33/3/3 19/3/3 18/3/3
f 33/4/3 21/4/3 19/4/3
f 34/2/3 22/2/3 21/2/3
f 34/4/3 21/4/3 33/4/3
f 35/4/3 23/4/3 22/4/3
f 35/2/3 22/2/3 34/2/3
f 36/2/3 24/2/3 23/2/3
f 36/4/3 23/4/3 35/4/3
f 37/4/3 25/4/3 24/4/3
f 37/2/3 24/2/3 36/2/3
f 38/2/3 26/2/3 25/2/3
f 38/4/3 25/4/3 37/4/3
f 39/4/3 27/4/3 26/4/3
f 39/2/3 26/2/3 38/2/3
f 40/2/3 28/2/3 27/2/3
f 40/4/3 27/4/3 39/4/3
f 41/4/3 29/4/3 28/4/3
f 41/2/3 28/2/3 40/2/3
f 42/2/3 30/2/3 29/2/3
f 42/4/3 29/4/3 41/4/3
f 43/4/3 31/4/3 30/4/3
f 43/2/3 30/2/3 42/2/3
f 44/2/3 32/2/3 31/2/3
f 44/4/3 31/4/3 43/4/3
f 45/4/3 20/4/3 32/4/3
f 45/2/3 32/2/3 44/2/3
f 46/4/3 20/4/3 45/4/3
f 47/3/3 33/3/3 18/3/3
f 47/2/3 34/2/3 33/2/3
f 48/4/3 35/4/3 34/4/3
f 48/2/3 34/2/3 47/2/3
f 49/2/3 36/2/3 35/2/3
f 49/4/3 35/4/3 48/4/3
f 50/4/3 37/4/3 36/4/3
f 50/2/3 36/2/3 49/2/3
f 51/2/3 38/2/3 37/2/3
f 51/4/3 37/4/3 50/4/3
f 52/4/3 39/4/3 38/4/3
f 52/2/3 38/2/3 51/2/3
f 53/2/3 40/2/3 39/2/3
f 53/4/3 39/4/3 52/4/3
f 54/4/3 41/4/3 40/4/3
f 54/2/3 40/2/3 53/2/3
f 55/2/3 42/2/3 41/2/3
f 55/4/3 41/4/3 54/4/3
f 56/4/3 43/4/3 42/4/3
f 56/2/3 42/2/3 55/2/3
f 57/2/3 44/2/3 43/2/3
f 57/4/3 43/4/3 56/4/3
f 58/4/3 45/4/3 44/4/3
f 58/2/3 44/2/3 57/2/3
f 59/2/3 46/2/3 45/2/3
f 59/4/3 45/4/3 58/4/3
f 60/4/3 20/4/3 46/4/3
f 60/2/3 46/2/3 59/2/3
f 61/1/3 18/1/3 17/1/3
f 62/3/3 47/3/3 18/3/3
f 62/1/3 18/1/3 61/1/3
f 63/4/3 56/4/3 55/4/3
f 63/3/3 47/3/3 62/3/3
f 63/4/3 55/4/3 54/4/3
f 63/4/3 60/4/3 59/4/3
f 63/4/3 57/4/3 56/4/3
f 63/4/3 54/4/3 53/4/3
f 63/4/3 53/4/3 52/4/3
f 63/4/3 52/4/3 51/4/3
f 63/4/3 51/4/3 50/4/3
f 63/4/3 50/4/3 49/4/3
f 63/4/3 49/4/3 48/4/3
f 63/4/3 48/4/3 47/4/3
f 63/4/3 59/4/3 58/4/3
f 63/4/3 58/4/3 57/4/3
f 64/4/3 20/4/3 60/4/3
f 64/4/3 60/4/3 63/4/3
f 65/1/4 66/1/4 69/1/4
f 66/3/4 67/3/4 70/3/4
f 69/1/4 66/1/4 70/1/4
f 67/4/4 68/4/4 71/4/4
f 70/3/4 67/3/4 71/3/4
f 71/4/4 68/4/4 72/4/4
f 75/1/5 74/1/5 73/1/5
f 76/1/5 74/1/5 75/1/5
f 77/4/6 78/4/6 79/4/6
f 79/4/6 78/4/6 80/4/6
