# MagicaVoxel @ Ephtracy

# group
o 

# material
mtllib SSSSSSSSSSSSSSSSSSSSSSSSSSSSSSSSSSSSSSSSSSSSSSSSSSSSSSSSSSSSSSSSSSSSSSSSSSSSSSSSSSSSSSSSSSSSSSSSSSSSSSSSSSSSSGHOOLRANK-1.mtl
usemtl palette

# normals
vn 0 0 -1
vn 0 0 1
vn -1 0 0
vn 1 0 0
vn 0 -1 0
vn 0 1 0

# texcoords
vt 0.236328 0.5
vt 0.990234 0.5
vt 0.994141 0.5

# verts
v 6.8 4.2 -2.8
v 7.2 4.2 -2.8
v 6.8 4.3 -2.8
v 7.2 4.3 -2.8
v 6.8 2.9 -2.7
v 7.2 2.9 -2.7
v 6.8 4.2 -2.7
v 7.2 4.2 -2.7
v 7.3 4.2 -2.7
v 6.8 4.3 -2.7
v 7.2 4.3 -2.7
v 7.3 4.3 -2.7
v 7.1 4.6 -2.7
v 7.2 4.6 -2.7
v 6.8 4.7 -2.7
v 7.1 4.7 -2.7
v 6.7 3.2 -2.5
v 6.8 3.2 -2.5
v 6.7 3.3 -2.5
v 6.8 3.3 -2.5
v 6.7 3 -2.2
v 6.8 3 -2.2
v 6.7 3.2 -2.2
v 6.8 3.2 -2.2
v 6.8 3.3 -2.3
v 7.2 3.3 -2.3
v 6.8 4.2 -2.3
v 7.2 4.2 -2.3
v 7.3 4.2 -2.3
v 6.8 4.3 -2.3
v 7.2 4.3 -2.3
v 7.3 4.3 -2.3
v 7.1 4.6 -2.3
v 7.2 4.6 -2.3
v 6.8 4.7 -2.3
v 7.1 4.7 -2.3
v 6.8 2.9 -2.2
v 7.2 2.9 -2.2
v 6.8 3 -2.2
v 6.9 3 -2.2
v 6.9 3.3 -2.2
v 7.2 3.3 -2.2
v 6.8 4.2 -2.2
v 7.2 4.2 -2.2
v 6.8 4.3 -2.2
v 7.2 4.3 -2.2
v 6.7 3 -2.1
v 6.9 3 -2.1
v 6.7 3.3 -2.1
v 6.9 3.3 -2.1
v 6.7 3.2 -2.5
v 6.7 3.3 -2.5
v 6.7 3 -2.2
v 6.7 3.2 -2.2
v 6.7 3 -2.1
v 6.7 3.3 -2.1
v 6.8 4.2 -2.8
v 6.8 4.3 -2.8
v 6.8 2.9 -2.7
v 6.8 4.2 -2.7
v 6.8 4.3 -2.7
v 6.8 4.7 -2.7
v 6.8 3.2 -2.5
v 6.8 3.3 -2.5
v 6.8 3.3 -2.3
v 6.8 4.2 -2.3
v 6.8 4.3 -2.3
v 6.8 4.7 -2.3
v 6.8 2.9 -2.2
v 6.8 3 -2.2
v 6.8 3.2 -2.2
v 6.8 4.2 -2.2
v 6.8 4.3 -2.2
v 6.9 3 -2.2
v 6.9 3.3 -2.2
v 6.9 3 -2.1
v 6.9 3.3 -2.1
v 7.1 4.6 -2.7
v 7.1 4.7 -2.7
v 7.1 4.6 -2.3
v 7.1 4.7 -2.3
v 7.2 4.2 -2.8
v 7.2 4.3 -2.8
v 7.2 2.9 -2.7
v 7.2 4.2 -2.7
v 7.2 4.3 -2.7
v 7.2 4.6 -2.7
v 7.2 3.3 -2.3
v 7.2 4.2 -2.3
v 7.2 4.3 -2.3
v 7.2 4.6 -2.3
v 7.2 2.9 -2.2
v 7.2 3.3 -2.2
v 7.2 4.2 -2.2
v 7.2 4.3 -2.2
v 7.3 4.2 -2.7
v 7.3 4.3 -2.7
v 7.3 4.2 -2.3
v 7.3 4.3 -2.3
v 6.8 2.9 -2.7
v 6.8 2.9 -2.2
v 7.2 2.9 -2.7
v 7.2 2.9 -2.2
v 6.7 3 -2.2
v 6.7 3 -2.1
v 6.8 3 -2.2
v 6.9 3 -2.2
v 6.9 3 -2.1
v 6.7 3.2 -2.5
v 6.7 3.2 -2.2
v 6.8 3.2 -2.5
v 6.8 3.2 -2.2
v 6.8 4.2 -2.8
v 6.8 4.2 -2.7
v 6.8 4.2 -2.3
v 6.8 4.2 -2.2
v 7.2 4.2 -2.8
v 7.2 4.2 -2.7
v 7.2 4.2 -2.3
v 7.2 4.2 -2.2
v 7.3 4.2 -2.7
v 7.3 4.2 -2.3
v 6.7 3.3 -2.5
v 6.7 3.3 -2.1
v 6.8 3.3 -2.5
v 6.8 3.3 -2.3
v 6.9 3.3 -2.2
v 6.9 3.3 -2.1
v 7.2 3.3 -2.3
v 7.2 3.3 -2.2
v 6.8 4.3 -2.8
v 6.8 4.3 -2.7
v 6.8 4.3 -2.3
v 6.8 4.3 -2.2
v 7.2 4.3 -2.8
v 7.2 4.3 -2.7
v 7.2 4.3 -2.3
v 7.2 4.3 -2.2
v 7.3 4.3 -2.7
v 7.3 4.3 -2.3
v 7.1 4.6 -2.7
v 7.1 4.6 -2.3
v 7.2 4.6 -2.7
v 7.2 4.6 -2.3
v 6.8 4.7 -2.7
v 6.8 4.7 -2.3
v 7.1 4.7 -2.7
v 7.1 4.7 -2.3

# faces
f 3/2/1 2/2/1 1/2/1
f 4/2/1 2/2/1 3/2/1
f 7/1/1 6/1/1 5/1/1
f 8/1/1 6/1/1 7/1/1
f 11/2/1 9/2/1 8/2/1
f 12/2/1 9/2/1 11/2/1
f 13/3/1 11/3/1 10/3/1
f 14/3/1 11/3/1 13/3/1
f 15/3/1 13/3/1 10/3/1
f 16/3/1 13/3/1 15/3/1
f 19/1/1 18/1/1 17/1/1
f 20/1/1 18/1/1 19/1/1
f 23/1/1 22/1/1 21/1/1
f 24/1/1 22/1/1 23/1/1
f 25/1/2 26/1/2 27/1/2
f 27/1/2 26/1/2 28/1/2
f 28/2/2 29/2/2 31/2/2
f 31/2/2 29/2/2 32/2/2
f 30/3/2 31/3/2 33/3/2
f 33/3/2 31/3/2 34/3/2
f 30/3/2 33/3/2 35/3/2
f 35/3/2 33/3/2 36/3/2
f 37/1/2 38/1/2 39/1/2
f 39/1/2 38/1/2 40/1/2
f 40/1/2 38/1/2 41/1/2
f 41/1/2 38/1/2 42/1/2
f 43/2/2 44/2/2 45/2/2
f 45/2/2 44/2/2 46/2/2
f 47/1/2 48/1/2 49/1/2
f 49/1/2 48/1/2 50/1/2
f 54/1/3 52/1/3 51/1/3
f 55/1/3 54/1/3 53/1/3
f 56/1/3 52/1/3 54/1/3
f 56/1/3 54/1/3 55/1/3
f 60/2/3 58/2/3 57/2/3
f 61/2/3 58/2/3 60/2/3
f 63/1/3 60/1/3 59/1/3
f 64/1/3 60/1/3 63/1/3
f 65/1/3 60/1/3 64/1/3
f 66/3/3 62/3/3 61/3/3
f 66/1/3 60/1/3 65/1/3
f 66/3/3 61/3/3 60/3/3
f 67/3/3 62/3/3 66/3/3
f 68/3/3 62/3/3 67/3/3
f 69/1/3 63/1/3 59/1/3
f 70/1/3 63/1/3 69/1/3
f 71/1/3 63/1/3 70/1/3
f 72/2/3 67/2/3 66/2/3
f 73/2/3 67/2/3 72/2/3
f 74/1/4 75/1/4 76/1/4
f 76/1/4 75/1/4 77/1/4
f 78/3/4 79/3/4 80/3/4
f 80/3/4 79/3/4 81/3/4
f 82/2/4 83/2/4 85/2/4
f 85/2/4 83/2/4 86/2/4
f 84/1/4 85/1/4 88/1/4
f 88/1/4 85/1/4 89/1/4
f 86/3/4 87/3/4 90/3/4
f 90/3/4 87/3/4 91/3/4
f 84/1/4 88/1/4 92/1/4
f 92/1/4 88/1/4 93/1/4
f 89/2/4 90/2/4 94/2/4
f 94/2/4 90/2/4 95/2/4
f 96/2/4 97/2/4 98/2/4
f 98/2/4 97/2/4 99/2/4
f 102/1/5 101/1/5 100/1/5
f 103/1/5 101/1/5 102/1/5
f 106/1/5 105/1/5 104/1/5
f 107/1/5 105/1/5 106/1/5
f 108/1/5 105/1/5 107/1/5
f 111/1/5 110/1/5 109/1/5
f 112/1/5 110/1/5 111/1/5
f 117/2/5 114/2/5 113/2/5
f 118/2/5 114/2/5 117/2/5
f 119/2/5 116/2/5 115/2/5
f 120/2/5 116/2/5 119/2/5
f 121/2/5 119/2/5 118/2/5
f 122/2/5 119/2/5 121/2/5
f 123/1/6 124/1/6 125/1/6
f 125/1/6 124/1/6 126/1/6
f 126/1/6 124/1/6 127/1/6
f 127/1/6 124/1/6 128/1/6
f 126/1/6 127/1/6 129/1/6
f 129/1/6 127/1/6 130/1/6
f 131/2/6 132/2/6 135/2/6
f 135/2/6 132/2/6 136/2/6
f 133/2/6 134/2/6 137/2/6
f 137/2/6 134/2/6 138/2/6
f 136/2/6 137/2/6 139/2/6
f 139/2/6 137/2/6 140/2/6
f 141/3/6 142/3/6 143/3/6
f 143/3/6 142/3/6 144/3/6
f 145/3/6 146/3/6 147/3/6
f 147/3/6 146/3/6 148/3/6
